<svg xmlns="http://www.w3.org/2000/svg" width="16" height="16" viewBox="0 0 16 16" fill="none">
  <g clip-path="url(#clip0_151_1377)">
    <path opacity="0.944" fill-rule="evenodd" clip-rule="evenodd"
      d="M15.9844 1.92188C15.9844 4.01563 15.9844 6.10938 15.9844 8.20313C15.7052 9.09891 15.0907 9.52597 14.1406 9.48438C14.1458 10.3907 14.1406 11.2969 14.125 12.2031C14.0366 12.3888 13.8959 12.4461 13.7031 12.375C13.2292 11.8594 12.7552 11.3438 12.2812 10.8281C12.2001 11.6068 11.7887 12.112 11.0469 12.3438C9.44353 12.3778 7.83938 12.409 6.23438 12.4375C5.35869 13.4068 4.47328 14.3652 3.57812 15.3125C3.40822 15.3642 3.27803 15.3173 3.1875 15.1719C3.17188 14.2553 3.16666 13.3386 3.17188 12.4219C2.61969 12.4271 2.06761 12.4219 1.51562 12.4063C0.994456 12.367 0.572581 12.1431 0.25 11.7344C0.128413 11.548 0.0398709 11.3501 -0.015625 11.1406C-0.015625 9.04688 -0.015625 6.95313 -0.015625 4.85938C0.175885 4.15241 0.634219 3.73053 1.35938 3.59375C2.14056 3.57813 2.92181 3.57291 3.70312 3.57813C3.69791 3.04677 3.70312 2.51552 3.71875 1.98438C3.86375 1.27689 4.28562 0.834185 4.98438 0.656251C8.18228 0.635416 11.3802 0.635416 14.5781 0.656251C15.3205 0.779038 15.7893 1.20091 15.9844 1.92188ZM5.07812 1.20313C8.21356 1.19792 11.349 1.20313 14.4844 1.21875C14.9656 1.28334 15.2729 1.54897 15.4062 2.01563C15.4271 4.04688 15.4271 6.07813 15.4062 8.10938C15.2643 8.58416 14.9466 8.84978 14.4531 8.90625C14.2135 8.91666 13.974 8.92709 13.7344 8.9375C13.6897 8.95203 13.6532 8.9781 13.625 9.01563C13.5839 9.80456 13.5631 10.5962 13.5625 11.3906C13.1354 10.9219 12.7083 10.4531 12.2812 9.98438C12.2708 8.29688 12.2604 6.60938 12.25 4.92188C12.0701 4.10653 11.5648 3.65341 10.7344 3.5625C8.57825 3.57184 6.422 3.57703 4.26562 3.57813C4.26041 3.07802 4.26562 2.57802 4.28125 2.07813C4.37941 1.63113 4.64503 1.33946 5.07812 1.20313ZM10.1406 4.10938C10.5366 4.07138 10.9116 4.13909 11.2656 4.3125C11.4979 4.49253 11.6385 4.72691 11.6875 5.01563C11.7083 6.98438 11.7083 8.95313 11.6875 10.9219C11.599 11.4271 11.3021 11.724 10.7969 11.8125C9.19219 11.8144 7.58803 11.8353 5.98438 11.875C5.24134 12.6807 4.49656 13.488 3.75 14.2969C3.73959 13.5469 3.72916 12.7969 3.71875 12.0469C3.69734 11.967 3.65047 11.9097 3.57812 11.875C2.82723 11.8724 2.07723 11.8516 1.32812 11.8125C0.927084 11.7031 0.671875 11.4479 0.5625 11.0469C0.541666 9.01563 0.541666 6.98438 0.5625 4.95313C0.691894 4.50084 0.988769 4.23522 1.45312 4.15625C4.35419 4.15103 7.25003 4.13541 10.1406 4.10938Z"
      fill="currentColor" />
    <path opacity="0.94" fill-rule="evenodd" clip-rule="evenodd"
      d="M2.51557 6.23438C3.7552 6.22916 4.99479 6.23438 6.23432 6.25C6.37979 6.34054 6.42667 6.47072 6.37495 6.64063C6.32379 6.71282 6.25607 6.75969 6.17182 6.78125C4.98432 6.8021 3.79682 6.8021 2.60932 6.78125C2.39819 6.71057 2.33048 6.56994 2.4062 6.35938C2.44918 6.32172 2.48564 6.28007 2.51557 6.23438Z"
      fill="currentColor" />
    <path opacity="0.943" fill-rule="evenodd" clip-rule="evenodd"
      d="M2.5468 7.82813C4.92184 7.82291 7.29684 7.82813 9.6718 7.84375C9.84655 7.91882 9.90384 8.04904 9.84368 8.23438C9.80534 8.30394 9.74802 8.35082 9.6718 8.375C7.2968 8.39585 4.9218 8.39585 2.5468 8.375C2.30276 8.19172 2.30276 8.00944 2.5468 7.82813Z"
      fill="currentColor" />
    <path opacity="0.944" fill-rule="evenodd" clip-rule="evenodd"
      d="M2.57817 9.42188C4.93236 9.41666 7.28652 9.42188 9.64067 9.4375C9.84364 9.49519 9.91136 9.62538 9.8438 9.82813C9.80733 9.88541 9.76045 9.93229 9.70317 9.96875C7.31777 9.9896 4.93233 9.9896 2.54692 9.96875C2.36561 9.85285 2.32915 9.70182 2.43755 9.51563C2.48916 9.48754 2.53603 9.45629 2.57817 9.42188Z"
      fill="currentColor" />
  </g>
  <defs>
    <clipPath id="clip0_151_1377">
      <rect width="16" height="16" fill="white" />
    </clipPath>
  </defs>
</svg>