<svg xmlns="http://www.w3.org/2000/svg" width="16" height="16" viewBox="0 0 16 16" fill="none">
  <path opacity="0.941" fill-rule="evenodd" clip-rule="evenodd"
    d="M1.82813 0.484375C5.30731 0.479166 8.78647 0.484375 12.2656 0.5C12.9711 1.29942 13.643 2.12754 14.2813 2.98438C14.3021 7.08853 14.3021 11.1927 14.2813 15.2969C14.2592 15.3463 14.2331 15.3932 14.2031 15.4375C12.1328 15.4738 10.0598 15.4895 7.98438 15.4844C5.93228 15.4792 3.88022 15.474 1.82813 15.4688C1.75579 15.4341 1.70892 15.3768 1.6875 15.2969C1.66667 10.4219 1.66667 5.54688 1.6875 0.671875C1.71263 0.589191 1.7595 0.526691 1.82813 0.484375ZM2.20313 1.01563C5.43228 1.01563 8.66147 1.01563 11.8906 1.01563C11.8756 1.75803 11.8913 2.49761 11.9375 3.23438C11.9657 3.27191 12.0022 3.29797 12.0469 3.3125C12.6197 3.32813 13.1926 3.33334 13.7656 3.32813C13.7656 7.20313 13.7656 11.0781 13.7656 14.9531C9.91147 14.9531 6.05728 14.9531 2.20313 14.9531C2.20313 10.3073 2.20313 5.66147 2.20313 1.01563ZM12.4219 1.51563C12.7699 1.9316 13.1136 2.35348 13.4531 2.78125C13.1095 2.79687 12.7658 2.80208 12.4219 2.79688C12.4219 2.36979 12.4219 1.94271 12.4219 1.51563Z"
    fill="currentColor" />
  <path opacity="0.942" fill-rule="evenodd" clip-rule="evenodd"
    d="M5.04688 2.10938C7.00526 2.10417 8.96357 2.10938 10.9219 2.125C10.9703 2.16294 11.0067 2.20981 11.0313 2.26563C11.0521 2.97396 11.0521 3.68228 11.0313 4.39063C11.0052 4.45834 10.9584 4.50522 10.8906 4.53125C8.95313 4.55209 7.01563 4.55209 5.07813 4.53125C5.01041 4.50522 4.96354 4.45834 4.93751 4.39063C4.91666 3.68228 4.91666 2.97396 4.93751 2.26563C4.96866 2.20865 5.00513 2.15657 5.04688 2.10938ZM5.45313 2.64063C5.45313 3.09896 5.45313 3.55728 5.45313 4.01563C7.14063 4.01563 8.82813 4.01563 10.5156 4.01563C10.5156 3.55728 10.5156 3.09896 10.5156 2.64063C8.82813 2.64063 7.14063 2.64063 5.45313 2.64063Z"
    fill="currentColor" />
  <path opacity="0.936" fill-rule="evenodd" clip-rule="evenodd"
    d="M7.85938 5.20314C8.00876 5.17629 8.11813 5.22839 8.18751 5.35939C8.20313 5.56745 8.20832 5.77579 8.20313 5.98439C9.09054 5.96954 9.97594 5.98517 10.8594 6.03126C10.9078 6.0692 10.9442 6.11607 10.9688 6.17189C10.9896 6.45314 10.9896 6.73439 10.9688 7.01564C10.8745 7.19914 10.7339 7.24601 10.5469 7.15626C10.5094 7.12804 10.4833 7.0916 10.4688 7.04689C10.4532 6.8701 10.4479 6.69301 10.4531 6.51564C8.78648 6.51564 7.11979 6.51564 5.45313 6.51564C5.45832 6.68264 5.4531 6.84929 5.43751 7.01564C5.3447 7.19898 5.20407 7.24585 5.01563 7.15626C4.9781 7.12804 4.95204 7.0916 4.93751 7.04689C4.91666 6.74479 4.91666 6.44273 4.93751 6.14064C4.97398 6.10417 5.01041 6.06773 5.04688 6.03126C5.91988 5.98517 6.79488 5.96954 7.67188 5.98439C7.65988 5.76285 7.67551 5.5441 7.71876 5.32814C7.76241 5.27907 7.80929 5.23739 7.85938 5.20314Z"
    fill="currentColor" />
  <path opacity="0.943" fill-rule="evenodd" clip-rule="evenodd"
    d="M3.70313 7.60913C4.75795 7.59394 5.81001 7.60957 6.85938 7.65601C6.89691 7.68422 6.92298 7.72066 6.93751 7.76538C6.95835 8.46329 6.95835 9.16122 6.93751 9.85913C6.90104 9.8956 6.8646 9.93204 6.82813 9.96851C5.76298 9.99932 4.70048 9.98888 3.64063 9.93726C3.5971 9.90066 3.57104 9.85379 3.56251 9.79663C3.54166 9.12997 3.54166 8.46329 3.56251 7.79663C3.58763 7.71394 3.63451 7.65144 3.70313 7.60913ZM4.07813 8.14038C4.07813 8.57788 4.07813 9.01538 4.07813 9.45288C4.85938 9.45288 5.64063 9.45288 6.42188 9.45288C6.42188 9.01538 6.42188 8.57788 6.42188 8.14038C5.64063 8.14038 4.85938 8.14038 4.07813 8.14038Z"
    fill="currentColor" />
  <path opacity="0.943" fill-rule="evenodd" clip-rule="evenodd"
    d="M9.17188 7.60913C10.2267 7.59394 11.2788 7.60957 12.3281 7.65601C12.3581 7.70035 12.3842 7.74722 12.4063 7.79663C12.4365 8.49654 12.4261 9.19444 12.375 9.89038C12.3468 9.92791 12.3104 9.95397 12.2656 9.96851C11.224 9.98935 10.1823 9.98935 9.14063 9.96851C9.10416 9.93204 9.06773 9.8956 9.03126 9.85913C9.01041 9.16122 9.01041 8.46329 9.03126 7.76538C9.06329 7.69704 9.11016 7.64494 9.17188 7.60913ZM9.54688 8.14038C9.54688 8.57788 9.54688 9.01538 9.54688 9.45288C10.3281 9.45288 11.1094 9.45288 11.8906 9.45288C11.8906 9.01538 11.8906 8.57788 11.8906 8.14038C11.1094 8.14038 10.3281 8.14038 9.54688 8.14038Z"
    fill="currentColor" />
  <path opacity="0.934" fill-rule="evenodd" clip-rule="evenodd"
    d="M5.64068 11.4531C7.20321 11.4479 8.76571 11.4531 10.3282 11.4688C10.5359 11.5459 10.5932 11.6866 10.5001 11.8906C10.4718 11.9282 10.4354 11.9542 10.3907 11.9688C8.78652 11.9896 7.18233 11.9896 5.57818 11.9688C5.42802 11.8722 5.39155 11.742 5.4688 11.5781C5.51568 11.5166 5.57296 11.4749 5.64068 11.4531Z"
    fill="currentColor" />
  <path opacity="0.934" fill-rule="evenodd" clip-rule="evenodd"
    d="M5.6093 13.0156C7.19267 13.0104 8.77598 13.0156 10.3593 13.0313C10.5964 13.1851 10.6068 13.3518 10.3905 13.5313C8.78639 13.5521 7.1822 13.5521 5.57805 13.5313C5.3638 13.3469 5.3742 13.175 5.6093 13.0156Z"
    fill="currentColor" />
</svg>