<svg xmlns="http://www.w3.org/2000/svg" width="16" height="16" viewBox="0 0 16 16" fill="none">
  <g clip-path="url(#clip0_151_1405)">
    <path opacity="0.935" fill-rule="evenodd" clip-rule="evenodd"
      d="M-0.015625 5.48409C-0.015625 5.39034 -0.015625 5.29659 -0.015625 5.20284C0.0199991 5.16219 0.0616659 5.12572 0.109375 5.09347C2.04974 4.59797 3.98725 4.09275 5.92188 3.57784C5.97531 3.37925 5.94928 3.19175 5.84375 3.01534C5.47916 2.65076 5.11459 2.28618 4.75 1.92159C4.29872 2.08718 3.95497 1.96218 3.71875 1.54659C3.56216 1.03171 3.73403 0.682754 4.23438 0.499719C4.98634 0.480991 5.28322 0.840366 5.125 1.57784C5.48959 1.94243 5.85416 2.30701 6.21875 2.67159C6.38713 2.90274 6.47566 3.16316 6.48438 3.45284C6.71653 3.36088 6.95612 3.314 7.20312 3.31222C7.25 3.33825 7.28647 3.37472 7.3125 3.42159C7.41875 3.78934 7.51772 4.15913 7.60938 4.53097C7.59144 4.66344 7.5185 4.74678 7.39062 4.78097C7.08012 4.86888 6.76762 4.947 6.45312 5.01534C6.45312 8.00494 6.45312 10.9945 6.45312 13.9841C6.66172 13.9789 6.87006 13.9841 7.07812 13.9997C7.13541 14.0153 7.17188 14.0518 7.1875 14.1091C7.20834 14.5258 7.20834 14.9424 7.1875 15.3591C7.17581 15.3877 7.16019 15.4138 7.14062 15.4372C6.02344 15.4735 4.90366 15.4891 3.78125 15.4841C2.68229 15.4789 1.58333 15.4737 0.484375 15.4685C0.447916 15.432 0.411459 15.3956 0.375 15.3591C0.354166 14.9424 0.354166 14.5258 0.375 14.1091C0.390625 14.0518 0.427084 14.0153 0.484375 13.9997C0.692447 13.9841 0.900781 13.9789 1.10938 13.9841C1.10417 11.7133 1.10938 9.44241 1.125 7.17159C1.20103 6.98572 1.33124 6.93884 1.51562 7.03097C1.55317 7.05919 1.57921 7.09563 1.59375 7.14034C1.60938 9.42156 1.61458 11.7028 1.60938 13.9841C3.05729 13.9841 4.50522 13.9841 5.95312 13.9841C5.95312 12.6091 5.95312 11.2341 5.95312 9.85909C5.14778 9.68766 4.72069 9.18766 4.67188 8.35909C4.73628 7.56553 5.15294 7.06553 5.92188 6.85909C5.95312 6.29697 5.96353 5.73447 5.95312 5.17159C4.13622 5.63234 2.31852 6.09066 0.5 6.54659C0.385384 6.56222 0.302052 6.52053 0.25 6.42159C0.160661 6.10544 0.0721191 5.79294 -0.015625 5.48409ZM4.32812 0.984094C4.58306 0.962935 4.69244 1.07752 4.65625 1.32784C4.58669 1.46412 4.47731 1.51099 4.32812 1.46847C4.19184 1.39891 4.14497 1.28954 4.1875 1.14034C4.21953 1.072 4.26641 1.01992 4.32812 0.984094ZM6.82812 3.85909C6.85938 3.85909 6.89062 3.85909 6.92188 3.85909C6.95144 4.02419 6.99309 4.18566 7.04688 4.34347C4.91581 4.90109 2.78562 5.45841 0.65625 6.01534C0.604794 5.84084 0.568334 5.66375 0.546875 5.48409C2.65018 4.96609 4.74394 4.42444 6.82812 3.85909ZM5.85938 7.39034C5.89062 7.39034 5.92188 7.39034 5.95312 7.39034C5.95834 8.04669 5.95312 8.70294 5.9375 9.35909C5.29847 9.09663 5.0745 8.63309 5.26562 7.96847C5.39784 7.706 5.59575 7.51331 5.85938 7.39034ZM0.859375 14.4841C2.80729 14.4841 4.75522 14.4841 6.70312 14.4841C6.70312 14.6508 6.70312 14.8174 6.70312 14.9841C4.75522 14.9841 2.80729 14.9841 0.859375 14.9841C0.859375 14.8174 0.859375 14.6508 0.859375 14.4841Z"
      fill="currentColor" />
    <path opacity="0.935" fill-rule="evenodd" clip-rule="evenodd"
      d="M15.9844 5.20284C15.9844 5.29659 15.9844 5.39034 15.9844 5.48409C15.8966 5.79294 15.8081 6.10544 15.7188 6.42159C15.6667 6.52053 15.5834 6.56222 15.4688 6.54659C13.6502 6.09066 11.8325 5.63234 10.0156 5.17159C10.0052 5.73447 10.0156 6.29697 10.0469 6.85909C11.0709 7.18831 11.4511 7.87581 11.1875 8.92159C10.9653 9.44653 10.5747 9.75903 10.0156 9.85909C10.0156 11.2341 10.0156 12.6091 10.0156 13.9841C11.4635 13.9841 12.9115 13.9841 14.3594 13.9841C14.3542 11.7028 14.3594 9.42156 14.375 7.14034C14.4692 6.983 14.5994 6.94653 14.7656 7.03097C14.8092 7.06756 14.8352 7.11444 14.8438 7.17159C14.8594 9.44241 14.8646 11.7133 14.8594 13.9841C15.068 13.9789 15.2763 13.9841 15.4844 13.9997C15.5417 14.0153 15.5781 14.0518 15.5938 14.1091C15.6146 14.5258 15.6146 14.9424 15.5938 15.3591C15.5573 15.3956 15.5208 15.432 15.4844 15.4685C14.3854 15.4737 13.2865 15.4789 12.1875 15.4841C11.0651 15.4891 9.94531 15.4735 8.82812 15.4372C8.80856 15.4138 8.79294 15.3877 8.78125 15.3591C8.76041 14.9424 8.76041 14.5258 8.78125 14.1091C8.79688 14.0518 8.83334 14.0153 8.89062 13.9997C9.09869 13.9841 9.30703 13.9789 9.51562 13.9841C9.51562 10.9945 9.51562 8.00494 9.51562 5.01534C9.20372 4.93738 8.89122 4.85925 8.57812 4.78097C8.45025 4.74678 8.37731 4.66344 8.35938 4.53097C8.45103 4.15913 8.55 3.78934 8.65625 3.42159C8.70653 3.34 8.77944 3.29834 8.875 3.29659C9.08263 3.33156 9.28575 3.38366 9.48438 3.45284C9.49309 3.16316 9.58162 2.90274 9.75 2.67159C10.1146 2.30701 10.4792 1.94243 10.8438 1.57784C10.6855 0.840366 10.9824 0.480991 11.7344 0.499719C12.2273 0.685163 12.3991 1.03412 12.25 1.54659C12.0138 1.96218 11.67 2.08718 11.2188 1.92159C10.8542 2.28618 10.4896 2.65076 10.125 3.01534C10.0195 3.19175 9.99344 3.37925 10.0469 3.57784C11.9815 4.09275 13.919 4.59797 15.8594 5.09347C15.9071 5.12572 15.9488 5.16219 15.9844 5.20284ZM11.4531 0.984094C11.7081 0.962935 11.8174 1.07752 11.7812 1.32784C11.7117 1.46412 11.6023 1.51099 11.4531 1.46847C11.3168 1.39891 11.27 1.28954 11.3125 1.14034C11.3445 1.072 11.3914 1.01992 11.4531 0.984094ZM9.04688 3.85909C11.1703 4.40719 13.2953 4.94888 15.4219 5.48409C15.4004 5.66375 15.364 5.84084 15.3125 6.01534C13.1852 5.45094 11.055 4.89366 8.92188 4.34347C8.97566 4.18566 9.01731 4.02419 9.04688 3.85909ZM10.0156 7.39034C10.6616 7.61969 10.896 8.06759 10.7188 8.73409C10.5874 9.04981 10.3583 9.25813 10.0312 9.35909C10.0156 8.70294 10.0104 8.04669 10.0156 7.39034ZM9.26562 14.4841C11.2135 14.4841 13.1615 14.4841 15.1094 14.4841C15.1094 14.6508 15.1094 14.8174 15.1094 14.9841C13.1615 14.9841 11.2135 14.9841 9.26562 14.9841C9.26562 14.8174 9.26562 14.6508 9.26562 14.4841Z"
      fill="currentColor" />
  </g>
  <defs>
    <clipPath id="clip0_151_1405">
      <rect width="16" height="16" fill="white" />
    </clipPath>
  </defs>
</svg>