<svg xmlns="http://www.w3.org/2000/svg" width="16" height="16" viewBox="0 0 16 16" fill="none">
  <g clip-path="url(#clip0_151_1412)">
    <path opacity="0.936" fill-rule="evenodd" clip-rule="evenodd"
      d="M5.60938 0.203125C6.53032 0.402109 7.44701 0.620859 8.35938 0.859375C9.21088 0.636081 10.065 0.422541 10.9219 0.21875C11.0879 0.179382 11.2077 0.236674 11.2813 0.390625C11.312 1.36206 11.3016 2.33081 11.25 3.29688C11.1938 3.35366 11.1261 3.39013 11.0469 3.40625C10.1532 3.64009 9.25738 3.86403 8.35938 4.07812C7.40491 3.85775 6.45698 3.61294 5.51563 3.34375C5.4781 3.31553 5.45204 3.27909 5.43751 3.23438C5.41666 2.27604 5.41666 1.31771 5.43751 0.359375C5.47976 0.289095 5.53704 0.237012 5.60938 0.203125ZM10.7344 0.796875C10.7759 1.50011 10.7759 2.20844 10.7344 2.92188C10.0299 3.10711 9.32676 3.29459 8.62501 3.48438C8.59898 2.7654 8.6042 2.04665 8.64063 1.32812C9.34335 1.15507 10.0413 0.977981 10.7344 0.796875ZM5.95313 0.828125C6.6542 0.979947 7.3521 1.14662 8.04688 1.32812C8.08332 2.04665 8.08854 2.7654 8.06251 3.48438C7.3646 3.29688 6.66666 3.10938 5.96876 2.92188C5.95313 2.22404 5.94791 1.52612 5.95313 0.828125Z"
      fill="currentColor" />
    <path opacity="0.921" fill-rule="evenodd" clip-rule="evenodd"
      d="M4.51562 2.2969C4.79619 2.29475 4.89516 2.43017 4.8125 2.70315C3.71375 3.47234 2.97417 4.50359 2.59375 5.7969C2.42108 5.97371 2.26483 5.96331 2.125 5.76565C2.13928 5.46184 2.21219 5.17015 2.34375 4.89065C2.81584 3.80968 3.53981 2.9451 4.51562 2.2969Z"
      fill="currentColor" />
    <path opacity="0.917" fill-rule="evenodd" clip-rule="evenodd"
      d="M12.0469 2.89062C12.1348 2.9008 12.2181 2.92685 12.2969 2.96875C12.9829 3.66637 13.4777 4.48409 13.7813 5.42188C13.8429 5.66156 13.7544 5.78134 13.5157 5.78125C13.4663 5.75916 13.4194 5.73312 13.375 5.70312C13.075 4.78984 12.5854 3.99819 11.9063 3.32812C11.8125 3.13125 11.8594 2.9854 12.0469 2.89062Z"
      fill="currentColor" />
    <path opacity="0.93" fill-rule="evenodd" clip-rule="evenodd"
      d="M8.23438 5.26562C9.3825 5.29478 10.1481 5.84687 10.5312 6.92188C10.5561 7.01472 10.5769 7.10847 10.5938 7.20312C10.6146 7.71353 10.6146 8.22397 10.5938 8.73438C10.4848 9.35316 10.1827 9.85316 9.6875 10.2344C9.66666 10.5052 9.66666 10.776 9.6875 11.0469C9.69875 11.1128 9.71959 11.1753 9.75 11.2344C9.87591 11.2976 9.95403 11.3965 9.98438 11.5312C10.191 11.6715 10.4202 11.7444 10.6719 11.75C10.8212 11.7986 10.967 11.8559 11.1094 11.9219C11.6595 11.5436 12.1335 11.0853 12.5312 10.5469C12.6992 10.2682 12.8711 9.99216 13.0469 9.71875C13.2536 9.64025 13.3891 9.70797 13.4531 9.92188C13.0211 10.8479 12.3961 11.6187 11.5781 12.2344C12.1818 12.7738 12.463 13.4509 12.4219 14.2656C12.4916 14.722 12.3666 15.1127 12.0469 15.4375C11.8287 15.6145 11.5787 15.7187 11.2969 15.75C9.31772 15.7708 7.33853 15.7708 5.35938 15.75C4.55175 15.5891 4.16631 15.0943 4.20312 14.2656C4.18356 13.6349 4.36584 13.0724 4.75 12.5781C4.77084 12.5469 4.77084 12.5156 4.75 12.4844C3.69113 11.8317 2.90986 10.9358 2.40625 9.79688C2.4127 9.50934 2.55333 9.42081 2.82812 9.53125C3.35475 10.6515 4.15163 11.5213 5.21875 12.1406C5.58262 11.863 5.99409 11.7015 6.45312 11.6562C6.69747 11.548 6.85894 11.3657 6.9375 11.1094C6.98519 10.8089 6.99559 10.5068 6.96875 10.2031C6.47572 9.81116 6.18406 9.30075 6.09375 8.67188C6.06531 8.13941 6.07572 7.60816 6.125 7.07812C6.30519 6.33572 6.73747 5.79928 7.42188 5.46875C7.68734 5.36272 7.95819 5.295 8.23438 5.26562ZM8.10938 5.79688C9.09728 5.77991 9.74312 6.23822 10.0469 7.17188C10.0312 7.18228 10.0156 7.19272 10 7.20312C9.69522 7.12653 9.38791 7.06403 9.07812 7.01562C8.9815 7.01584 8.88775 7.03147 8.79688 7.0625C8.37022 7.28109 7.92228 7.43734 7.45312 7.53125C7.17191 7.55731 6.90106 7.51562 6.64062 7.40625C6.64888 6.93122 6.83638 6.53537 7.20312 6.21875C7.47213 6.00256 7.77422 5.86194 8.10938 5.79688ZM9.01562 7.51562C9.36809 7.58681 9.71706 7.67016 10.0625 7.76562C10.2461 8.66347 9.97006 9.377 9.23438 9.90625C8.32125 10.3403 7.54522 10.1685 6.90625 9.39062C6.61941 8.95022 6.53084 8.47106 6.64062 7.95312C7.21347 8.09778 7.77597 8.06134 8.32812 7.84375C8.56991 7.75481 8.79906 7.64544 9.01562 7.51562ZM7.48438 10.5156C8.04281 10.7217 8.60009 10.7217 9.15625 10.5156C9.16666 10.7344 9.17709 10.9531 9.1875 11.1719C9.22878 11.2741 9.24959 11.3782 9.25 11.4844C9.02422 11.658 8.78984 11.8195 8.54688 11.9688C8.37197 12.0028 8.20531 11.982 8.04688 11.9062C7.81862 11.7508 7.59987 11.5841 7.39062 11.4062C7.47525 11.116 7.5065 10.8192 7.48438 10.5156ZM7.07812 11.8594C7.29106 12.0025 7.49941 12.1535 7.70312 12.3125C8.03788 12.5233 8.39203 12.565 8.76562 12.4375C9.05753 12.2708 9.33878 12.0885 9.60938 11.8906C9.71969 11.9748 9.83425 12.053 9.95312 12.125C10.41 12.1766 10.8267 12.3328 11.2031 12.5938C11.8839 13.2493 12.0767 14.0253 11.7812 14.9219C11.5812 15.1599 11.3259 15.2641 11.0156 15.2344C11.0208 14.8176 11.0156 14.4009 11 13.9844C10.8952 13.8137 10.7546 13.772 10.5781 13.8594C10.5442 13.8958 10.5182 13.9374 10.5 13.9844C10.4844 14.4009 10.4792 14.8176 10.4844 15.2344C9.05728 15.2344 7.63022 15.2344 6.20312 15.2344C6.20834 14.8072 6.20312 14.3801 6.1875 13.9531C6.03837 13.7773 5.88212 13.7669 5.71875 13.9219C5.70312 14.3593 5.69791 14.7968 5.70312 15.2344C5.26322 15.2931 4.9455 15.1265 4.75 14.7344C4.55681 13.2299 5.20784 12.3602 6.70312 12.125C6.84669 12.0588 6.97169 11.9703 7.07812 11.8594Z"
      fill="currentColor" />
    <path opacity="0.928" fill-rule="evenodd" clip-rule="evenodd"
      d="M3.64059 5.9845C3.78187 5.98113 3.88084 6.04363 3.93746 6.172C3.9583 6.94285 3.9583 7.71366 3.93746 8.4845C3.8813 8.749 3.71984 8.91047 3.45309 8.96888C3.00503 9.06525 2.69774 8.90379 2.53121 8.4845C2.47921 8.07822 2.65109 7.823 3.04684 7.71888C3.16943 7.6941 3.28921 7.69932 3.40621 7.7345C3.43224 7.35907 3.42702 6.98407 3.39059 6.6095C2.94414 6.75138 2.49622 6.88682 2.04684 7.01575C2.06079 7.72547 2.04516 8.43382 1.99996 9.14075C1.85898 9.41169 1.63502 9.5471 1.32809 9.547C1.05938 9.55588 0.845836 9.45172 0.687461 9.2345C0.511289 8.54019 0.78733 8.21729 1.51559 8.26575C1.50087 7.74194 1.5165 7.22113 1.56246 6.70325C1.59892 6.66679 1.63538 6.63035 1.67184 6.59388C2.33446 6.39897 2.99071 6.19585 3.64059 5.9845ZM3.10934 8.2345C3.1933 8.22938 3.27665 8.2346 3.35934 8.25013C3.44421 8.38138 3.40252 8.4595 3.23434 8.4845C3.05533 8.45997 3.01367 8.37663 3.10934 8.2345ZM1.26559 8.76575C1.3301 8.7716 1.3926 8.78722 1.45309 8.81263C1.50656 8.84804 1.52219 8.89491 1.49996 8.95325C1.35344 9.08516 1.22324 9.06954 1.10934 8.90638C1.15064 8.84463 1.20272 8.79775 1.26559 8.76575Z"
      fill="currentColor" />
    <path opacity="0.927" fill-rule="evenodd" clip-rule="evenodd"
      d="M12.3907 6.26563C13.3179 6.26041 14.245 6.26563 15.172 6.28125C15.2743 6.31063 15.3316 6.37835 15.3439 6.48438C15.3647 7.34897 15.3647 8.21354 15.3439 9.07813C15.3418 9.16488 15.3054 9.23257 15.2345 9.28125C14.2657 9.3021 13.297 9.3021 12.3282 9.28125C12.3022 9.25522 12.2761 9.22916 12.2501 9.20313C12.1986 8.28916 12.1881 7.37247 12.2189 6.45313C12.2402 6.35379 12.2975 6.29129 12.3907 6.26563ZM12.7345 6.79688C13.4324 6.79688 14.1303 6.79688 14.8282 6.79688C14.8282 7.46354 14.8282 8.13022 14.8282 8.79688C14.1303 8.79688 13.4324 8.79688 12.7345 8.79688C12.7345 8.13022 12.7345 7.46354 12.7345 6.79688Z"
      fill="currentColor" />
    <path opacity="0.931" fill-rule="evenodd" clip-rule="evenodd"
      d="M13.2656 6.98426C13.3187 6.97926 13.3708 6.98445 13.4219 6.99989C13.7914 7.17942 14.1559 7.36692 14.5156 7.56239C14.6385 7.71042 14.6385 7.85626 14.5156 7.99989C14.1615 8.17698 13.8073 8.35404 13.4531 8.53114C13.2897 8.58501 13.1699 8.53814 13.0938 8.39051C13.0729 7.98426 13.0729 7.57801 13.0938 7.17176C13.1363 7.09292 13.1935 7.03042 13.2656 6.98426ZM13.5 7.48425C13.4911 7.54013 13.5171 8.0141 13.5469 8.06238C14.1406 7.99989 14.1146 7.52592 13.5 7.48425Z"
      fill="currentColor" />
  </g>
  <defs>
    <clipPath id="clip0_151_1412">
      <rect width="16" height="16" fill="white" />
    </clipPath>
  </defs>
</svg>