<svg width="20" height="20" viewBox="0 0 20 20" fill="none" xmlns="http://www.w3.org/2000/svg">
  <path fill-rule="evenodd" clip-rule="evenodd"
    d="M9.99985 0.100586C10.4969 0.100586 10.8999 0.50353 10.8999 1.00059V9.10059H18.9999C19.4969 9.10059 19.8999 9.50353 19.8999 10.0006C19.8999 10.4976 19.4969 10.9006 18.9999 10.9006H10.8999V19.0006C10.8999 19.4976 10.4969 19.9006 9.99985 19.9006C9.5028 19.9006 9.09985 19.4976 9.09985 19.0006V10.9006H0.999854C0.502797 10.9006 0.0998535 10.4976 0.0998535 10.0006C0.0998535 9.50353 0.502797 9.10059 0.999854 9.10059H9.09985V1.00059C9.09985 0.50353 9.5028 0.100586 9.99985 0.100586Z"
    fill="url(#paint0_linear_89_2861)" />
  <defs>
    <linearGradient id="paint0_linear_89_2861" x1="9.99985" y1="0.100586" x2="9.99985" y2="19.9006"
      gradientUnits="userSpaceOnUse">
      <stop stop-color="currentColor" />
      <stop offset="1" stop-color="currentColor" />
    </linearGradient>
  </defs>
</svg>