<svg xmlns="http://www.w3.org/2000/svg" width="16" height="16" viewBox="0 0 16 16" fill="none">
  <g clip-path="url(#clip0_151_1429)">
    <path opacity="0.948" fill-rule="evenodd" clip-rule="evenodd"
      d="M11.3594 -0.015625C12.7135 -0.015625 14.0677 -0.015625 15.4219 -0.015625C15.7084 0.104141 15.8959 0.312474 15.9844 0.609375C15.9844 1.40104 15.9844 2.19271 15.9844 2.98438C15.896 3.30709 15.6877 3.51022 15.3594 3.59375C15.0677 3.60416 14.776 3.61459 14.4844 3.625C13.6615 4.14062 12.8385 4.65625 12.0156 5.17188C12.0052 5.15103 11.9948 5.13022 11.9844 5.10938C12.0813 4.61128 12.1646 4.11128 12.2344 3.60938C11.9194 3.62259 11.6069 3.60697 11.2969 3.5625C11.0463 3.45778 10.8848 3.2755 10.8125 3.01562C10.7917 2.19271 10.7917 1.36979 10.8125 0.546875C10.8964 0.259937 11.0787 0.0724375 11.3594 -0.015625ZM11.5156 0.515625C12.7657 0.510416 14.0157 0.515625 15.2656 0.53125C15.3104 0.545788 15.3468 0.571831 15.375 0.609375C15.4109 1.00235 15.4265 1.39818 15.4219 1.79688C15.4167 2.17188 15.4115 2.54688 15.4063 2.92188C15.3644 3.00295 15.2967 3.04982 15.2031 3.0625C14.901 3.07292 14.599 3.08333 14.2969 3.09375C13.7865 3.41147 13.276 3.72916 12.7656 4.04688C12.7552 4.03125 12.7448 4.01562 12.7344 4C12.7949 3.69397 12.847 3.38669 12.8906 3.07812C12.4426 3.08333 11.9947 3.07812 11.5469 3.0625C11.4735 3.05169 11.4162 3.01523 11.375 2.95312C11.3239 2.2051 11.3134 1.4551 11.3438 0.703125C11.3863 0.624294 11.4435 0.561794 11.5156 0.515625Z"
      fill="currentColor" />
    <path opacity="0.93" fill-rule="evenodd" clip-rule="evenodd"
      d="M-0.015625 5.8281C-0.015625 5.80726 -0.015625 5.78645 -0.015625 5.7656C0.138635 5.68979 0.289677 5.60644 0.4375 5.5156C0.606403 5.75935 0.767862 6.00935 0.921875 6.2656C1.73276 3.42866 3.56609 1.64221 6.42188 0.906226C7.66247 0.651833 8.89163 0.698708 10.1094 1.04685C10.0805 1.2271 10.0389 1.40418 9.98438 1.5781C7.51087 0.917954 5.31297 1.42316 3.39062 3.09373C2.48205 3.96766 1.85705 5.01454 1.51562 6.23435C1.52604 6.2552 1.53646 6.27601 1.54688 6.29685C1.73968 6.17438 1.9376 6.05979 2.14062 5.9531C2.27867 6.08482 2.36721 6.24107 2.40625 6.42185C1.91407 6.72785 1.41927 7.02994 0.921875 7.3281C0.609034 6.82723 0.296535 6.32723 -0.015625 5.8281Z"
      fill="currentColor" />
    <path opacity="0.963" fill-rule="evenodd" clip-rule="evenodd"
      d="M11.8281 1.01562C12.8698 1.01562 13.9115 1.01562 14.9531 1.01562C14.9531 1.19271 14.9531 1.36979 14.9531 1.54688C13.9115 1.54688 12.8698 1.54688 11.8281 1.54688C11.8281 1.36979 11.8281 1.19271 11.8281 1.01562Z"
      fill="currentColor" />
    <path opacity="0.958" fill-rule="evenodd" clip-rule="evenodd"
      d="M11.8281 2.04688C12.526 2.04688 13.224 2.04688 13.9219 2.04688C13.9219 2.22396 13.9219 2.40104 13.9219 2.57812C13.224 2.57812 12.526 2.57812 11.8281 2.57812C11.8281 2.40104 11.8281 2.22396 11.8281 2.04688Z"
      fill="currentColor" />
    <path opacity="0.892" fill-rule="evenodd" clip-rule="evenodd"
      d="M14.3906 2.04688C14.5781 2.04688 14.7656 2.04688 14.9531 2.04688C14.9531 2.22396 14.9531 2.40104 14.9531 2.57812C14.7656 2.57812 14.5781 2.57812 14.3906 2.57812C14.3906 2.40104 14.3906 2.22396 14.3906 2.04688Z"
      fill="currentColor" />
    <path opacity="0.941" fill-rule="evenodd" clip-rule="evenodd"
      d="M5.64062 15.9843C5.41147 15.9843 5.18228 15.9843 4.95312 15.9843C4.672 15.9164 4.41159 15.7966 4.17188 15.625C2.90625 14.3593 1.64062 13.0937 0.375 11.8281C0.167652 11.5438 0.0374437 11.2313 -0.015625 10.8906C-0.015625 10.7552 -0.015625 10.6198 -0.015625 10.4843C0.0376091 10.143 0.167818 9.83053 0.375 9.54685C0.8125 9.10935 1.25 8.67185 1.6875 8.23435C2.33377 8.87541 2.97439 9.52122 3.60938 10.1718C3.26606 10.5308 2.91711 10.8849 2.5625 11.2343C2.5 11.3281 2.5 11.4218 2.5625 11.5156C2.85417 11.8073 3.14584 12.0989 3.4375 12.3906C3.62353 11.6526 4.07666 11.1682 4.79688 10.9375C5.41984 10.8139 6.04484 10.7045 6.67188 10.6093C6.67678 10.5664 6.67156 10.5248 6.65625 10.4843C5.99137 10.0823 5.57994 9.499 5.42188 8.73435C5.00134 8.65247 4.73572 8.40247 4.625 7.98435C4.60416 7.151 4.60416 6.31769 4.625 5.48435C4.91106 3.89622 5.84334 2.93266 7.42188 2.59372C9.09944 2.41924 10.313 3.08069 11.0625 4.5781C11.1946 4.87747 11.278 5.18997 11.3125 5.5156C11.3333 6.74475 11.3333 7.97394 11.3125 9.2031C11.2423 9.4506 11.0912 9.63288 10.8594 9.74997C10.5904 9.78778 10.3196 9.80863 10.0469 9.81247C9.82644 10.0763 9.57122 10.3003 9.28125 10.4843C9.26594 10.5248 9.26072 10.5664 9.26562 10.6093C9.89266 10.7045 10.5177 10.8139 11.1406 10.9375C11.7068 11.0975 12.1079 11.4464 12.3438 11.9843C12.5542 12.6209 12.7677 13.2563 12.9844 13.8906C11.1511 13.9166 9.31781 13.9323 7.48438 13.9375C7.59375 14.0468 7.70312 14.1562 7.8125 14.2656C7.83334 14.2968 7.83334 14.3281 7.8125 14.3593C7.34897 14.7812 6.88541 15.2031 6.42188 15.625C6.18231 15.7969 5.92191 15.9167 5.64062 15.9843ZM7.57812 3.10935C8.8845 3.0202 9.85844 3.54103 10.5 4.67185C10.7836 5.35385 10.8721 6.06216 10.7656 6.79685C10.6987 6.76244 10.631 6.73119 10.5625 6.7031C10.5469 6.60991 10.5417 6.51616 10.5469 6.42185C9.8365 6.46303 9.19069 6.28075 8.60938 5.87497C8.39547 5.68185 8.18194 5.48916 7.96875 5.29685C7.73356 5.52163 7.48878 5.73516 7.23438 5.93747C6.66353 6.30416 6.03853 6.4656 5.35938 6.42185C5.35938 6.526 5.35938 6.63019 5.35938 6.73435C5.29134 6.73703 5.22884 6.75788 5.17188 6.79685C4.97006 5.65825 5.26172 4.67388 6.04688 3.84372C6.4945 3.46363 7.00494 3.21881 7.57812 3.10935ZM7.95312 6.04685C8.53263 6.58641 9.22013 6.8885 10.0156 6.9531C10.0208 7.46363 10.0156 7.97403 10 8.48435C9.96666 8.75103 9.88331 9.00103 9.75 9.23435C9.15344 9.26538 8.55447 9.27578 7.95312 9.2656C7.95312 9.44269 7.95312 9.61975 7.95312 9.79685C8.39075 9.79163 8.82825 9.79685 9.26562 9.81247C8.45556 10.4204 7.62222 10.4517 6.76562 9.90622C6.30944 9.55135 6.03341 9.08778 5.9375 8.5156C5.92188 7.99488 5.91666 7.47403 5.92188 6.9531C6.71338 6.89566 7.39047 6.5936 7.95312 6.04685ZM5.32812 7.3281C5.36428 7.58297 5.36947 7.84341 5.34375 8.10935C5.08072 7.85419 5.0755 7.59378 5.32812 7.3281ZM10.5469 7.3281C10.6053 7.33931 10.6522 7.37056 10.6875 7.42185C10.8506 7.69663 10.8089 7.93622 10.5625 8.1406C10.5469 7.86997 10.5417 7.59913 10.5469 7.3281ZM10.7656 8.6406C10.8098 8.80516 10.8046 8.97181 10.75 9.1406C10.6425 9.26156 10.5123 9.29281 10.3594 9.23435C10.4259 9.08297 10.4779 8.92672 10.5156 8.7656C10.6094 8.73953 10.6927 8.69788 10.7656 8.6406ZM1.67188 9.0156C2.0562 9.38428 2.43641 9.75928 2.8125 10.1406C2.76852 10.2483 2.6956 10.342 2.59375 10.4218C2.21875 10.0468 1.84375 9.67185 1.46875 9.29685C1.44792 9.276 1.44792 9.25519 1.46875 9.23435C1.54288 9.1655 1.61059 9.09256 1.67188 9.0156ZM1.01562 9.67185C1.39995 10.0405 1.78016 10.4155 2.15625 10.7968C2.10939 10.9086 2.0573 11.0232 2 11.1406C1.94959 11.399 1.99126 11.6386 2.125 11.8593C2.79688 12.5312 3.46875 13.2031 4.14062 13.875C4.49888 14.0813 4.83744 14.0553 5.15625 13.7968C5.53125 14.1718 5.90625 14.5468 6.28125 14.9218C6.24259 15.0242 6.17491 15.1128 6.07812 15.1875C5.55713 15.5416 5.03628 15.5416 4.51562 15.1875C3.28125 13.9531 2.04688 12.7187 0.8125 11.4843C0.402369 10.8258 0.470078 10.2216 1.01562 9.67185ZM7.29688 10.7656C7.74478 10.8489 8.19272 10.8489 8.64062 10.7656C8.423 10.9989 8.19903 11.228 7.96875 11.4531C7.73847 11.228 7.5145 10.9989 7.29688 10.7656ZM6.79688 11.1093C7.18166 11.4837 7.56706 11.8587 7.95312 12.2343C8.33809 11.865 8.71831 11.49 9.09375 11.1093C9.78813 11.2378 10.4808 11.3784 11.1719 11.5312C11.4197 11.642 11.6124 11.8139 11.75 12.0468C11.9239 12.4853 12.0854 12.928 12.2344 13.375C10.4635 13.3958 8.69272 13.3958 6.92188 13.375C6.59247 13.0351 6.25391 12.707 5.90625 12.3906C5.52641 12.7287 5.14619 13.0673 4.76562 13.4062C4.68656 13.4507 4.60322 13.4611 4.51562 13.4375C4.28606 13.2496 4.07775 13.0413 3.89062 12.8125C3.97131 12.4655 4.11194 12.1478 4.3125 11.8593C4.49422 11.6773 4.70775 11.5471 4.95312 11.4687C5.57312 11.3551 6.18772 11.2353 6.79688 11.1093ZM5.85938 13.1406C6.26816 13.5024 6.66397 13.8826 7.04688 14.2812C6.94791 14.3802 6.84897 14.4791 6.75 14.5781C6.375 14.2031 6 13.8281 5.625 13.4531C5.60416 13.4323 5.60416 13.4114 5.625 13.3906C5.70953 13.3113 5.78766 13.228 5.85938 13.1406Z"
      fill="currentColor" />
    <path opacity="0.929" fill-rule="evenodd" clip-rule="evenodd"
      d="M14.2969 4.76562C14.8263 5.06169 15.3472 5.37419 15.8594 5.70312C15.7826 5.86803 15.6837 6.01388 15.5625 6.14062C15.3255 6.01816 15.0963 5.88275 14.875 5.73438C15.5015 7.88922 15.2411 9.93087 14.0938 11.8594C13.9443 12.1065 13.7724 12.3357 13.5781 12.5469C13.4327 12.4431 13.2973 12.3285 13.1719 12.2031C14.6272 10.2856 15.0074 8.17103 14.3125 5.85938C14.1767 6.11063 14.0256 6.35022 13.8594 6.57812C13.6945 6.50137 13.5486 6.40241 13.4219 6.28125C13.721 5.77931 14.0127 5.27412 14.2969 4.76562Z"
      fill="currentColor" />
  </g>
  <defs>
    <clipPath id="clip0_151_1429">
      <rect width="16" height="16" fill="white" />
    </clipPath>
  </defs>
</svg>