<svg width="20" height="20" viewBox="0 0 20 20" fill="none" xmlns="http://www.w3.org/2000/svg">
  <path id="Vector" opacity="0.978" fill-rule="evenodd" clip-rule="evenodd"
    d="M9.27726 1.23044C11.858 1.06589 13.8698 2.04245 15.3124 4.16013C15.7986 4.96747 16.098 5.8399 16.2109 6.77732C16.2123 8.57529 16.2383 10.3722 16.289 12.1679C16.3192 12.3066 16.3713 12.4368 16.4452 12.5586C16.8523 13.1514 17.269 13.7373 17.6952 14.3164C18.0154 15.008 17.8786 15.5874 17.2851 16.0547C17.1725 16.1175 17.0553 16.1695 16.9335 16.2109C15.6443 16.2174 14.3552 16.237 13.0663 16.2695C12.6233 17.8188 11.5946 18.6522 9.98039 18.7695C8.36613 18.6522 7.3375 17.8188 6.89445 16.2695C5.60558 16.237 4.31652 16.2174 3.02726 16.2109C2.28018 15.919 1.98721 15.3786 2.14836 14.5898C2.18742 14.4987 2.22648 14.4075 2.26555 14.3164C2.69181 13.7373 3.10847 13.1514 3.51555 12.5586C3.58949 12.4368 3.64158 12.3066 3.6718 12.1679C3.72248 10.3722 3.74853 8.57529 3.74992 6.77732C4.16961 4.07923 5.67351 2.30189 8.26164 1.44529C8.60293 1.36017 8.94144 1.28855 9.27726 1.23044ZM9.94133 2.48044C12.3644 2.61931 13.9725 3.83025 14.7655 6.11326C14.8377 6.3697 14.8898 6.63009 14.9218 6.89451C14.9587 8.7704 14.9978 10.6454 15.039 12.5195C15.1268 12.8254 15.257 13.1118 15.4296 13.3789C15.8007 13.9062 16.1718 14.4336 16.5429 14.9609C12.1679 14.987 7.79289 14.987 3.41789 14.9609C3.81022 14.3911 4.20734 13.8247 4.6093 13.2617C4.74601 13.0274 4.85019 12.78 4.9218 12.5195C4.96297 10.6454 5.00203 8.7704 5.03898 6.89451C5.29051 5.23763 6.13035 3.98111 7.55851 3.12497C8.30734 2.72096 9.1016 2.50612 9.94133 2.48044ZM8.26164 16.2304C9.40777 16.2174 10.5536 16.2304 11.6991 16.2695C11.2528 17.2218 10.5106 17.5929 9.47258 17.3828C8.88332 17.1906 8.47969 16.8065 8.26164 16.2304Z"
    fill="currentColor" />
</svg>