<svg xmlns="http://www.w3.org/2000/svg" width="16" height="16" viewBox="0 0 16 16" fill="none">
  <path opacity="0.964" fill-rule="evenodd" clip-rule="evenodd"
    d="M4.7345 0.984378C5.26134 0.901519 5.65196 1.08902 5.90637 1.54688C5.96809 1.68633 5.99412 1.83217 5.9845 1.98438C7.31784 1.98438 8.65115 1.98438 9.9845 1.98438C10.0156 1.34909 10.3489 1.01576 10.9845 0.984378C11.6201 1.01576 11.9534 1.34909 11.9845 1.98438C12.4221 1.97917 12.8596 1.98438 13.297 2C13.9831 2.16521 14.4258 2.58709 14.6251 3.26563C14.6612 5.00425 14.6768 6.74385 14.672 8.48438C14.6668 10.1615 14.6616 11.8385 14.6564 13.5156C14.5684 14.1557 14.2299 14.6088 13.6407 14.875C13.5296 14.919 13.415 14.9503 13.297 14.9688C9.75534 14.9896 6.21365 14.9896 2.672 14.9688C2.0359 14.8223 1.6036 14.4421 1.37512 13.8281C1.34757 13.7253 1.32674 13.6212 1.31262 13.5156C1.30741 11.8385 1.3022 10.1615 1.297 8.48438C1.29217 6.74385 1.3078 5.00425 1.34387 3.26563C1.54322 2.58709 1.98593 2.16521 2.672 2C3.10937 1.98438 3.54687 1.97917 3.9845 1.98438C4.00828 1.4775 4.25828 1.14417 4.7345 0.984378ZM4.89075 1.67188C5.0759 1.65235 5.20609 1.72527 5.28137 1.89063C5.30221 2.18229 5.30221 2.47396 5.28137 2.76563C5.16425 2.95445 5.00278 3.00132 4.797 2.90625C4.74859 2.86832 4.71215 2.82144 4.68762 2.76563C4.66678 2.47396 4.66678 2.18229 4.68762 1.89063C4.71943 1.78079 4.78715 1.70788 4.89075 1.67188ZM10.8907 1.67188C11.0759 1.65235 11.2061 1.72527 11.2814 1.89063C11.3022 2.18229 11.3022 2.47396 11.2814 2.76563C11.1642 2.95445 11.0028 3.00132 10.797 2.90625C10.7486 2.86832 10.7122 2.82144 10.6876 2.76563C10.6668 2.47396 10.6668 2.18229 10.6876 1.89063C10.7194 1.78079 10.7872 1.70788 10.8907 1.67188ZM2.797 2.67188C3.19284 2.67188 3.58865 2.67188 3.9845 2.67188C4.03493 3.28482 4.36828 3.61816 4.9845 3.67188C5.60043 3.61844 5.93375 3.28513 5.9845 2.67188C7.31784 2.67188 8.65115 2.67188 9.9845 2.67188C10.0349 3.28482 10.3683 3.61816 10.9845 3.67188C11.6004 3.61844 11.9337 3.28513 11.9845 2.67188C12.3805 2.66667 12.7763 2.67188 13.172 2.6875C13.6684 2.82968 13.9341 3.15782 13.9689 3.67188C13.9845 4.10925 13.9897 4.54675 13.9845 4.98438C9.9845 4.98438 5.9845 4.98438 1.9845 4.98438C1.97929 4.54675 1.9845 4.10925 2.00012 3.67188C2.04105 3.15722 2.30668 2.82388 2.797 2.67188ZM1.9845 5.67188C5.9845 5.67188 9.9845 5.67188 13.9845 5.67188C13.9897 8.21357 13.9845 10.7552 13.9689 13.2969C13.9341 13.8109 13.6684 14.1391 13.172 14.2813C9.71365 14.3021 6.25534 14.3021 2.797 14.2813C2.30057 14.1391 2.03495 13.8109 2.00012 13.2969C1.9845 10.7552 1.97929 8.21357 1.9845 5.67188Z"
    fill="currentColor" />
  <path opacity="0.961" fill-rule="evenodd" clip-rule="evenodd"
    d="M3.76563 6.98438C4.24491 6.97916 4.72407 6.98438 5.20313 7C5.44351 7.09447 5.59454 7.26635 5.65626 7.51563C5.6771 7.93229 5.6771 8.34897 5.65626 8.76563C5.60479 9.04622 5.44332 9.22854 5.17188 9.3125C4.71354 9.33335 4.25523 9.33335 3.79688 9.3125C3.52545 9.22854 3.36398 9.04622 3.31251 8.76563C3.29166 8.34897 3.29166 7.93229 3.31251 7.51563C3.38029 7.26569 3.53135 7.0886 3.76563 6.98438ZM3.98438 7.67188C3.98438 7.99479 3.98438 8.31772 3.98438 8.64063C4.31773 8.64063 4.65104 8.64063 4.98438 8.64063C4.98438 8.31772 4.98438 7.99479 4.98438 7.67188C4.65104 7.67188 4.31773 7.67188 3.98438 7.67188Z"
    fill="currentColor" />
  <path opacity="0.961" fill-rule="evenodd" clip-rule="evenodd"
    d="M7.26563 6.98438C7.74491 6.97916 8.22407 6.98438 8.70313 7C8.94351 7.09447 9.09454 7.26635 9.15626 7.51563C9.1771 7.93229 9.1771 8.34897 9.15626 8.76563C9.10479 9.04622 8.94332 9.22854 8.67188 9.3125C8.21354 9.33335 7.75523 9.33335 7.29688 9.3125C7.02545 9.22854 6.86398 9.04622 6.81251 8.76563C6.79166 8.34897 6.79166 7.93229 6.81251 7.51563C6.88029 7.26569 7.03135 7.0886 7.26563 6.98438ZM7.48438 7.67188C7.48438 7.99479 7.48438 8.31772 7.48438 8.64063C7.81773 8.64063 8.15104 8.64063 8.48438 8.64063C8.48438 8.31772 8.48438 7.99479 8.48438 7.67188C8.15104 7.67188 7.81773 7.67188 7.48438 7.67188Z"
    fill="currentColor" />
  <path opacity="0.961" fill-rule="evenodd" clip-rule="evenodd"
    d="M10.7656 6.98438C11.2449 6.97916 11.7241 6.98438 12.2031 7C12.4435 7.09447 12.5945 7.26635 12.6563 7.51563C12.6771 7.93229 12.6771 8.34897 12.6563 8.76563C12.6048 9.04622 12.4433 9.22854 12.1719 9.3125C11.7135 9.33335 11.2552 9.33335 10.7969 9.3125C10.5254 9.22854 10.364 9.04622 10.3125 8.76563C10.2917 8.34897 10.2917 7.93229 10.3125 7.51563C10.3803 7.26569 10.5314 7.0886 10.7656 6.98438ZM10.9844 7.67188C10.9844 7.99479 10.9844 8.31772 10.9844 8.64063C11.3177 8.64063 11.651 8.64063 11.9844 8.64063C11.9844 8.31772 11.9844 7.99479 11.9844 7.67188C11.651 7.67188 11.3177 7.67188 10.9844 7.67188Z"
    fill="currentColor" />
  <path opacity="0.962" fill-rule="evenodd" clip-rule="evenodd"
    d="M3.79688 10.6406C4.25532 10.6354 4.71366 10.6406 5.17188 10.6563C5.44332 10.7402 5.60479 10.9225 5.65626 11.2031C5.6771 11.6198 5.6771 12.0365 5.65626 12.4531C5.59454 12.7024 5.44351 12.8743 5.20313 12.9688C4.72398 12.9896 4.24479 12.9896 3.76563 12.9688C3.52526 12.8743 3.37423 12.7024 3.31251 12.4531C3.29166 12.0365 3.29166 11.6198 3.31251 11.2031C3.36998 10.922 3.53145 10.7345 3.79688 10.6406ZM3.98438 11.3281C3.98438 11.651 3.98438 11.974 3.98438 12.2969C4.31773 12.2969 4.65104 12.2969 4.98438 12.2969C4.98438 11.974 4.98438 11.651 4.98438 11.3281C4.65104 11.3281 4.31773 11.3281 3.98438 11.3281Z"
    fill="currentColor" />
  <path opacity="0.962" fill-rule="evenodd" clip-rule="evenodd"
    d="M7.29688 10.6406C7.75532 10.6354 8.21366 10.6406 8.67188 10.6563C8.94332 10.7402 9.10479 10.9225 9.15626 11.2031C9.1771 11.6198 9.1771 12.0365 9.15626 12.4531C9.09454 12.7024 8.94351 12.8743 8.70313 12.9688C8.22398 12.9896 7.74479 12.9896 7.26563 12.9688C7.02526 12.8743 6.87423 12.7024 6.81251 12.4531C6.79166 12.0365 6.79166 11.6198 6.81251 11.2031C6.86998 10.922 7.03145 10.7345 7.29688 10.6406ZM7.48438 11.3281C7.48438 11.651 7.48438 11.974 7.48438 12.2969C7.81773 12.2969 8.15104 12.2969 8.48438 12.2969C8.48438 11.974 8.48438 11.651 8.48438 11.3281C8.15104 11.3281 7.81773 11.3281 7.48438 11.3281Z"
    fill="currentColor" />
  <path opacity="0.962" fill-rule="evenodd" clip-rule="evenodd"
    d="M10.7969 10.6406C11.2553 10.6354 11.7137 10.6406 12.1719 10.6563C12.4433 10.7402 12.6048 10.9225 12.6563 11.2031C12.6771 11.6198 12.6771 12.0365 12.6563 12.4531C12.5945 12.7024 12.4435 12.8743 12.2031 12.9688C11.724 12.9896 11.2448 12.9896 10.7656 12.9688C10.5253 12.8743 10.3742 12.7024 10.3125 12.4531C10.2917 12.0365 10.2917 11.6198 10.3125 11.2031C10.37 10.922 10.5314 10.7345 10.7969 10.6406ZM10.9844 11.3281C10.9844 11.651 10.9844 11.974 10.9844 12.2969C11.3177 12.2969 11.651 12.2969 11.9844 12.2969C11.9844 11.974 11.9844 11.651 11.9844 11.3281C11.651 11.3281 11.3177 11.3281 10.9844 11.3281Z"
    fill="currentColor" />
</svg>