<svg xmlns="http://www.w3.org/2000/svg" width="16" height="16" viewBox="0 0 16 16" fill="none">
  <path opacity="0.959" fill-rule="evenodd" clip-rule="evenodd"
    d="M4.04696 0.984375C6.66155 0.979166 9.27615 0.984375 11.8907 1C12.3191 1.11587 12.5743 1.39191 12.6563 1.82813C12.672 2.2134 12.6772 2.59882 12.672 2.98438C13.1825 2.97917 13.6929 2.98438 14.2032 3C14.5272 3.1219 14.6835 3.35628 14.672 3.70313C14.6599 4.93884 14.3734 6.1055 13.8126 7.20313C13.3588 8.01113 12.7077 8.59969 11.8595 8.96875C11.3518 9.74731 10.7163 10.4036 9.95321 10.9375C9.76402 11.0529 9.56608 11.1519 9.35946 11.2344C9.31574 11.5587 9.32093 11.8816 9.37508 12.2031C9.4428 12.3958 9.57299 12.526 9.76571 12.5938C10.2536 12.6335 10.7432 12.6543 11.2345 12.6563C12.1183 12.8474 12.5975 13.3943 12.672 14.2969C12.6586 14.6204 12.5024 14.8444 12.2032 14.9688C9.39071 14.9896 6.57821 14.9896 3.76571 14.9688C3.45605 14.8518 3.2998 14.6278 3.29696 14.2969C3.37146 13.3943 3.85061 12.8474 4.73446 12.6563C5.22571 12.6543 5.7153 12.6335 6.20321 12.5938C6.57377 12.394 6.71961 12.0815 6.64071 11.6563C6.6303 11.5156 6.61986 11.375 6.60946 11.2344C6.14618 11.0393 5.72952 10.7737 5.35946 10.4375C4.87383 9.98347 4.44674 9.48347 4.07821 8.9375C3.24043 8.57894 2.59979 8.00081 2.15633 7.20313C1.53363 6.00619 1.26279 4.73534 1.34383 3.39063C1.43422 3.2065 1.57484 3.07629 1.76571 3C2.27602 2.98438 2.78644 2.97917 3.29696 2.98438C3.29174 2.59882 3.29696 2.2134 3.31258 1.82813C3.39727 1.40507 3.64205 1.12382 4.04696 0.984375ZM4.20321 1.67188C6.72405 1.66667 9.2449 1.67188 11.7657 1.6875C11.8914 1.74587 11.9591 1.84483 11.9688 1.98438C11.9976 3.56816 11.9872 5.1515 11.9376 6.73438C11.8172 7.61006 11.4839 8.39131 10.9376 9.07813C10.5214 9.57784 10.0474 10.0101 9.51571 10.375C8.1594 11.0673 6.9198 10.9007 5.79696 9.875C5.01115 9.20394 4.46427 8.37581 4.15633 7.39063C4.10665 7.18391 4.06499 6.97556 4.03133 6.76563C3.98186 5.17231 3.97143 3.57856 4.00008 1.98438C4.01368 1.84203 4.0814 1.73786 4.20321 1.67188ZM2.01571 3.67188C2.44279 3.67188 2.86987 3.67188 3.29696 3.67188C3.29174 4.63025 3.29696 5.58859 3.31258 6.54688C3.34549 6.97366 3.41843 7.39035 3.53133 7.79688C3.01491 7.306 2.63991 6.72266 2.40633 6.04688C2.14672 5.2765 2.01651 4.48481 2.01571 3.67188ZM12.672 3.67188C13.0991 3.67188 13.5261 3.67188 13.9532 3.67188C13.9636 4.89078 13.6667 6.02619 13.0626 7.07813C12.8892 7.34541 12.6809 7.585 12.4376 7.79688C12.5505 7.39035 12.6234 6.97366 12.6563 6.54688C12.672 5.58859 12.6772 4.63025 12.672 3.67188ZM7.32821 11.4531C7.54758 11.4676 7.76633 11.4884 7.98446 11.5156C8.20258 11.4884 8.42133 11.4676 8.64071 11.4531C8.62849 11.7573 8.64411 12.0594 8.68758 12.3594C8.84758 12.8839 9.19655 13.2016 9.73446 13.3125C10.1928 13.3229 10.6511 13.3333 11.1095 13.3438C11.6289 13.4517 11.9101 13.7693 11.9532 14.2969C9.30736 14.2969 6.66155 14.2969 4.01571 14.2969C4.0588 13.7693 4.34005 13.4517 4.85946 13.3438C5.3178 13.3333 5.77611 13.3229 6.23446 13.3125C6.77236 13.2016 7.12133 12.8839 7.28133 12.3594C7.3248 12.0594 7.34043 11.7573 7.32821 11.4531Z"
    fill="currentColor" />
  <path opacity="0.949" fill-rule="evenodd" clip-rule="evenodd"
    d="M7.8282 3.4219C7.95748 3.41083 8.08248 3.42646 8.2032 3.46877C8.46088 3.81746 8.71088 4.17162 8.9532 4.53127C9.3386 4.64586 9.72404 4.76043 10.1094 4.87502C10.3255 4.99283 10.3828 5.16471 10.2813 5.39065C10.0417 5.70315 9.80217 6.01565 9.56257 6.32815C9.54916 6.76605 9.54916 7.20355 9.56257 7.64065C9.47513 7.86402 9.3137 7.94215 9.0782 7.87502C8.71241 7.7479 8.34785 7.61768 7.98445 7.4844C7.62104 7.61768 7.25648 7.7479 6.8907 7.87502C6.56482 7.93449 6.39816 7.79908 6.3907 7.46877C6.42345 7.08896 6.42866 6.70874 6.40632 6.32815C6.16673 6.01565 5.92716 5.70315 5.68757 5.39065C5.58607 5.16177 5.64338 4.9899 5.85945 4.87502C6.24485 4.76043 6.63029 4.64586 7.0157 4.53127C7.23966 4.20315 7.4636 3.87502 7.68757 3.5469C7.73123 3.49783 7.7781 3.45615 7.8282 3.4219ZM7.9532 4.39065C7.80645 4.64715 7.63979 4.89196 7.4532 5.12502C7.16154 5.21877 6.86985 5.31252 6.5782 5.40627C6.76204 5.62133 6.93391 5.84527 7.09382 6.07815C7.12485 6.16902 7.14048 6.26277 7.1407 6.3594C7.10679 6.58896 7.10679 6.81811 7.1407 7.0469C7.41635 6.93418 7.6976 6.84043 7.98445 6.76565C8.27129 6.84043 8.55254 6.93418 8.8282 7.0469C8.8621 6.81811 8.8621 6.58896 8.8282 6.3594C8.82841 6.26277 8.84404 6.16902 8.87507 6.07815C9.03498 5.84527 9.20685 5.62133 9.3907 5.40627C9.08366 5.31649 8.78157 5.21233 8.48445 5.09377C8.32507 4.84111 8.14798 4.60674 7.9532 4.39065Z"
    fill="currentColor" />
</svg>