<svg width="20" height="20" viewBox="0 0 20 20" fill="none" xmlns="http://www.w3.org/2000/svg">
  <path opacity="0.965" fill-rule="evenodd" clip-rule="evenodd"
    d="M4.62893 1.38672C8.19667 1.38021 11.7644 1.38672 15.3321 1.40625C16.7496 1.57416 17.7457 2.30984 18.3203 3.61328C18.4477 3.94047 18.5258 4.27902 18.5547 4.62891C18.5808 7.24609 18.5808 9.86328 18.5547 12.4805C18.3676 13.9434 17.5928 14.9525 16.2305 15.5078C15.913 15.613 15.5875 15.6781 15.2539 15.7031C12.5977 15.7161 9.94143 15.7292 7.28518 15.7422C6.92429 15.8102 6.59878 15.9534 6.30862 16.1719C5.64456 16.8359 4.9805 17.5 4.31643 18.1641C3.39072 18.7776 2.53786 18.693 1.75784 17.9102C1.56616 17.6699 1.44897 17.3964 1.40628 17.0898C1.36787 12.8311 1.38089 8.57332 1.44534 4.31641C1.8543 2.62468 2.9155 1.64811 4.62893 1.38672ZM4.58987 2.87109C8.18366 2.86458 11.7774 2.87109 15.3711 2.89063C16.3198 3.0971 16.8862 3.67652 17.0703 4.62891C17.0964 7.24609 17.0964 9.86328 17.0703 12.4805C16.865 13.454 16.2726 14.0334 15.293 14.2188C12.6237 14.2318 9.95444 14.2448 7.28518 14.2578C6.62862 14.3258 6.02968 14.5471 5.48831 14.9219C4.76026 15.6109 4.04409 16.314 3.33987 17.0312C3.16729 17.1128 3.01755 17.0802 2.89065 16.9336C2.86461 12.832 2.86461 8.73047 2.89065 4.62891C3.08191 3.67599 3.64832 3.09005 4.58987 2.87109Z"
    fill="currentColor" />
</svg>