<svg xmlns="http://www.w3.org/2000/svg" width="16" height="17" viewBox="0 0 16 17" fill="none">
  <g clip-path="url(#clip0_82_1401)">
    <path opacity="0.969" fill-rule="evenodd" clip-rule="evenodd"
      d="M0.640655 0.484375C5.5365 0.484375 10.4323 0.484375 15.3282 0.484375C15.7797 0.697778 15.91 1.04153 15.7188 1.51562C13.9792 3.96353 12.2396 6.41147 10.5 8.85938C10.3453 9.06462 10.2412 9.29378 10.1875 9.54688C10.1771 11.276 10.1667 13.0052 10.1563 14.7344C10.1386 15.0044 10.0084 15.1972 9.76565 15.3125C8.7405 15.7009 7.71969 16.0916 6.70316 16.4844C6.56775 16.4844 6.43231 16.4844 6.29691 16.4844C6.07691 16.384 5.92584 16.2173 5.84378 15.9844C5.83337 13.8802 5.82294 11.776 5.81253 9.67188C5.75975 9.30594 5.6139 8.98303 5.37503 8.70312C3.67712 6.31772 1.9792 3.93228 0.28128 1.54688C0.0745353 1.07852 0.194327 0.724354 0.640655 0.484375ZM1.1719 1.29688C5.724 1.29167 10.2761 1.29688 14.8282 1.3125C13.1771 3.63022 11.5261 5.94791 9.87503 8.26562C9.60772 8.61903 9.43065 9.01488 9.34378 9.45312C9.33856 11.1616 9.32294 12.8699 9.2969 14.5781C8.4249 14.9074 7.55512 15.2408 6.68753 15.5781C6.67712 13.6094 6.66669 11.6406 6.65628 9.67188C6.622 9.21478 6.47616 8.79813 6.21878 8.42188C4.52822 6.05053 2.84592 3.67553 1.1719 1.29688Z"
      fill="currentColor" />
  </g>
  <defs>
    <clipPath id="clip0_82_1401">
      <rect width="16" height="16" fill="white" transform="translate(0 0.5)" />
    </clipPath>
  </defs>
</svg>