<svg xmlns="http://www.w3.org/2000/svg" width="24" height="24" viewBox="0 0 24 24" fill="none">
  <g clip-path="url(#clip0_84_317)">
    <path opacity="0.994"
      d="M15.52 2.04222C16.6708 1.67864 17.9731 1.70446 19.447 2.1582C21.1967 2.88837 22.3928 4.12966 23.0589 5.90659C23.2453 6.48513 23.3845 7.06812 23.4766 7.65566V7.65779V7.66118V7.66457V7.66795V7.67134V7.67473V7.67812V7.6815V7.68489V7.68828V7.69167V7.69505V7.69844V7.70183V7.70522V7.7086V7.71199V7.71538V7.71877V7.72215V7.72554V7.72893V7.73232V7.7357V7.73909V7.74248V7.74586V7.74925V7.75264V7.75603V7.75941V7.7628V7.76619V7.76958V7.77296V7.77635V7.77974V7.78313V7.78651V7.7899V7.79329V7.79668V7.80006V7.80345V7.80684V7.81023V7.81361V7.817V7.82039V7.82378V7.82716V7.83055V7.83394V7.83733V7.84071V7.8441V7.84749V7.85087V7.85426V7.85765V7.86104V7.86442V7.86781V7.8712V7.87459V7.87797V7.88136V7.88475V7.88814V7.89152V7.89491V7.8983V7.90169V7.90507V7.90846V7.91185V7.91524V7.91862V7.92201V7.9254V7.92879V7.93217V7.93556V7.93895V7.94234V7.94572V7.94911V7.9525V7.95589V7.95927V7.96266V7.96605V7.96944V7.97282V7.97621V7.9796V7.98299V7.98637V7.98976V7.99315V7.99653V7.99992V8.00331V8.0067V8.01008V8.01347V8.01686V8.02025V8.02363V8.02702V8.03041V8.0338V8.03718V8.04057V8.04396V8.04735V8.05073V8.05412V8.05751V8.0609V8.06428V8.06767V8.07106V8.07445V8.07783V8.08122V8.08461V8.088V8.09138V8.09477V8.09816V8.10155V8.10493V8.10832V8.11171V8.1151V8.11848V8.12187V8.12526V8.12865V8.13203V8.13542V8.13881V8.1422V8.14558V8.14897V8.15236V8.15575V8.15913V8.16252V8.16591V8.1693V8.17268V8.17607V8.17946V8.18285V8.18623V8.18962V8.19301V8.1964V8.19978V8.20317V8.20656V8.20995V8.21333V8.21672V8.22011V8.2235V8.22688V8.23027V8.23366V8.23705V8.24043V8.24382V8.24721V8.2506V8.25398V8.25737V8.26076V8.26415V8.26753V8.27092V8.27431V8.2777V8.28108V8.28447V8.28786V8.29124V8.29463V8.29802V8.30141V8.3048V8.30818V8.31157V8.31496V8.31835V8.32173V8.32512V8.32851V8.33189V8.33528V8.33867V8.34206V8.34545V8.34883V8.35222V8.35561V8.35899V8.36238V8.36577V8.36916V8.37254V8.37593V8.37932V8.38271V8.3861V8.38948V8.39287V8.39626V8.39964V8.40303V8.40642V8.40981V8.41319V8.41658V8.41997V8.42336V8.42674V8.43013V8.43352V8.43691V8.44029V8.44368V8.44707V8.45046V8.45385V8.45723V8.46062V8.46401V8.46739V8.47078V8.47417V8.47756V8.48094V8.48433V8.48772V8.49111V8.49449V8.49788V8.50127V8.50466V8.50804V8.51143V8.51482V8.51821V8.52159V8.52498V8.52837V8.53176V8.53514V8.53853V8.54192V8.54531V8.54869V8.55208V8.55547V8.55886V8.56224V8.56563V8.56902V8.57241V8.57579V8.57918V8.58257V8.58596V8.58934V8.59273V8.59612V8.59951V8.60289V8.60628V8.60967V8.61306V8.61644V8.61983V8.62322V8.62661V8.62999V8.63338V8.63677V8.64016V8.64354V8.64693V8.65032V8.65371V8.65709V8.66048V8.66387V8.66726V8.67064V8.67403V8.67742V8.68081V8.68419V8.68758V8.69097V8.69436V8.69774V8.70113V8.70452V8.70791V8.71129V8.71468V8.71807V8.72146V8.72484V8.72823V8.73162V8.73501V8.73839V8.74178V8.74517V8.74856V8.75194V8.75533V8.75872V8.76211V8.76549V8.76888V8.77227V8.77566V8.77904V8.78243V8.78582V8.78921V8.79259V8.79598V8.79937V8.80276V8.80614V8.80953V8.81292V8.81631V8.81969V8.82308V8.82647V8.82986V8.83324V8.83663V8.84002V8.84341V8.84679V8.85018V8.85357V8.85696V8.86034V8.86373V8.86712V8.87051V8.87389V8.87728V8.88067V8.88406V8.88744V8.89083V8.89422V8.89761V8.90099V8.90438V8.90777V8.91116V8.91454V8.91793V8.92132V8.92471V8.92809V8.93148V8.93487V8.93826V8.94164V8.94503V8.94842V8.95181V8.95519V8.95858V8.96197V8.96535V8.96874V8.97213V8.97552V8.9789V8.98229V8.98568V8.98907V8.99245V8.99584V8.99923V9.00262V9.006V9.00939V9.01278V9.01617V9.01955V9.02294V9.02633V9.02972V9.0331V9.03649V9.03988V9.04327V9.04665V9.05004V9.05343V9.05682V9.0602V9.06359V9.06698V9.07037V9.07375V9.07714V9.08053V9.08392V9.0873V9.09069V9.09408V9.09747V9.10085V9.10424V9.10763V9.11101V9.1144V9.11779V9.12118V9.12456V9.12795V9.13134V9.13473V9.13811V9.1415V9.14489V9.14828V9.15166V9.15505V9.15844V9.16183V9.16521V9.1686V9.17199V9.17538V9.17876V9.18215V9.18554V9.18893V9.19231V9.1957V9.19909V9.20247V9.20586V9.20925V9.21264V9.21602V9.21941V9.2228V9.22619V9.22957V9.23296V9.23635V9.23974V9.24312V9.24651V9.2499V9.25329V9.25667V9.26006V9.26345V9.26684V9.27022V9.27361V9.277V9.28039V9.28377V9.28716V9.29055V9.29393V9.29732V9.30071V9.3041V9.30748V9.31087V9.31426V9.31497C23.2546 10.805 22.6891 12.1502 21.7767 13.3577C20.8322 14.5464 19.798 15.6572 18.6739 16.6902C16.7023 18.4165 14.722 20.1318 12.7329 21.8359C12.4376 22.079 12.1881 22.164 11.9766 22.164C11.765 22.164 11.5155 22.079 11.2202 21.8359C9.23114 20.1318 7.25083 18.4165 5.2792 16.6902C4.15514 15.6572 3.12097 14.5464 2.17647 13.3577C1.264 12.1502 0.698489 10.805 0.476562 9.31497V9.31426V9.31087V9.30748V9.3041V9.30071V9.29732V9.29393V9.29055V9.28716V9.28377V9.28039V9.277V9.27361V9.27022V9.26684V9.26345V9.26006V9.25667V9.25329V9.2499V9.24651V9.24312V9.23974V9.23635V9.23296V9.22957V9.22619V9.2228V9.21941V9.21602V9.21264V9.20925V9.20586V9.20247V9.19909V9.1957V9.19231V9.18893V9.18554V9.18215V9.17876V9.17538V9.17199V9.1686V9.16521V9.16183V9.15844V9.15505V9.15166V9.14828V9.14489V9.1415V9.13811V9.13473V9.13134V9.12795V9.12456V9.12118V9.11779V9.1144V9.11101V9.10763V9.10424V9.10085V9.09747V9.09408V9.09069V9.0873V9.08392V9.08053V9.07714V9.07375V9.07037V9.06698V9.06359V9.0602V9.05682V9.05343V9.05004V9.04665V9.04327V9.03988V9.03649V9.0331V9.02972V9.02633V9.02294V9.01955V9.01617V9.01278V9.00939V9.006V9.00262V8.99923V8.99584V8.99245V8.98907V8.98568V8.98229V8.9789V8.97552V8.97213V8.96874V8.96535V8.96197V8.95858V8.95519V8.95181V8.94842V8.94503V8.94164V8.93826V8.93487V8.93148V8.92809V8.92471V8.92132V8.91793V8.91454V8.91116V8.90777V8.90438V8.90099V8.89761V8.89422V8.89083V8.88744V8.88406V8.88067V8.87728V8.87389V8.87051V8.86712V8.86373V8.86034V8.85696V8.85357V8.85018V8.84679V8.84341V8.84002V8.83663V8.83324V8.82986V8.82647V8.82308V8.81969V8.81631V8.81292V8.80953V8.80614V8.80276V8.79937V8.79598V8.79259V8.78921V8.78582V8.78243V8.77904V8.77566V8.77227V8.76888V8.76549V8.76211V8.75872V8.75533V8.75194V8.74856V8.74517V8.74178V8.73839V8.73501V8.73162V8.72823V8.72484V8.72146V8.71807V8.71468V8.71129V8.70791V8.70452V8.70113V8.69774V8.69436V8.69097V8.68758V8.68419V8.68081V8.67742V8.67403V8.67064V8.66726V8.66387V8.66048V8.65709V8.65371V8.65032V8.64693V8.64354V8.64016V8.63677V8.63338V8.62999V8.62661V8.62322V8.61983V8.61644V8.61306V8.60967V8.60628V8.60289V8.59951V8.59612V8.59273V8.58934V8.58596V8.58257V8.57918V8.57579V8.57241V8.56902V8.56563V8.56224V8.55886V8.55547V8.55208V8.54869V8.54531V8.54192V8.53853V8.53514V8.53176V8.52837V8.52498V8.52159V8.51821V8.51482V8.51143V8.50804V8.50466V8.50127V8.49788V8.49449V8.49111V8.48772V8.48433V8.48094V8.47756V8.47417V8.47078V8.46739V8.46401V8.46062V8.45723V8.45385V8.45046V8.44707V8.44368V8.44029V8.43691V8.43352V8.43013V8.42674V8.42336V8.41997V8.41658V8.41319V8.40981V8.40642V8.40303V8.39964V8.39626V8.39287V8.38948V8.3861V8.38271V8.37932V8.37593V8.37254V8.36916V8.36577V8.36238V8.35899V8.35561V8.35222V8.34883V8.34545V8.34206V8.33867V8.33528V8.33189V8.32851V8.32512V8.32173V8.31835V8.31496V8.31157V8.30818V8.3048V8.30141V8.29802V8.29463V8.29124V8.28786V8.28447V8.28108V8.2777V8.27431V8.27092V8.26753V8.26415V8.26076V8.25737V8.25398V8.2506V8.24721V8.24382V8.24043V8.23705V8.23366V8.23027V8.22688V8.2235V8.22011V8.21672V8.21333V8.20995V8.20656V8.20317V8.19978V8.1964V8.19301V8.18962V8.18623V8.18285V8.17946V8.17607V8.17268V8.1693V8.16591V8.16252V8.15913V8.15575V8.15236V8.14897V8.14558V8.1422V8.13881V8.13542V8.13203V8.12865V8.12526V8.12187V8.11848V8.1151V8.11171V8.10832V8.10493V8.10155V8.09816V8.09477V8.09138V8.088V8.08461V8.08122V8.07783V8.07445V8.07106V8.06767V8.06428V8.0609V8.05751V8.05412V8.05073V8.04735V8.04396V8.04057V8.03718V8.0338V8.03041V8.02702V8.02363V8.02025V8.01686V8.01347V8.01008V8.0067V8.00331V7.99992V7.99653V7.99315V7.98976V7.98637V7.98299V7.9796V7.97621V7.97282V7.96944V7.96605V7.96266V7.95927V7.95589V7.9525V7.94911V7.94572V7.94234V7.93895V7.93556V7.93217V7.92879V7.9254V7.92201V7.91862V7.91524V7.91185V7.90846V7.90507V7.90169V7.8983V7.89491V7.89152V7.88814V7.88475V7.88136V7.87797V7.87459V7.8712V7.86781V7.86442V7.86104V7.85765V7.85426V7.85087V7.84749V7.8441V7.84071V7.83733V7.83394V7.83055V7.82716V7.82378V7.82039V7.817V7.81361V7.81023V7.80684V7.80345V7.80006V7.79668V7.79329V7.7899V7.78651V7.78313V7.77974V7.77635V7.77296V7.76958V7.76619V7.7628V7.75941V7.75603V7.75264V7.74925V7.74586V7.74248V7.73909V7.7357V7.73232V7.72893V7.72554V7.72215V7.71877V7.71538V7.71199V7.7086V7.70522V7.70183V7.69844V7.69505V7.69167V7.68828V7.68489V7.6815V7.67812V7.67473V7.67134V7.66795V7.66457V7.66118V7.65779V7.65441V7.65102V7.64763V7.64718C0.738609 5.5043 1.74711 3.8428 3.52044 2.62919C5.28306 1.6561 7.08479 1.52771 8.9661 2.24085C10.0137 2.74827 10.8816 3.46649 11.5753 4.39979L11.9702 4.93118L12.3733 4.40587C13.313 3.181 14.3638 2.40753 15.52 2.04222Z"
      stroke="currentColor" />
  </g>
  <defs>
    <clipPath id="clip0_84_317">
      <rect width="24" height="24" fill="currentColor" />
    </clipPath>
  </defs>
</svg>