<svg xmlns="http://www.w3.org/2000/svg" width="16" height="16" viewBox="0 0 16 16" fill="none">
  <path opacity="0.952" fill-rule="evenodd" clip-rule="evenodd"
    d="M7.39071 0.109256C9.7514 -0.0308576 11.5483 0.896224 12.7813 2.89051C13.5246 4.32669 13.6809 5.82669 13.2501 7.39051C12.9167 8.55729 12.3855 9.61979 11.6563 10.578C10.6618 11.8644 9.48996 12.9529 8.14071 13.8436C7.94196 13.8895 7.76489 13.8478 7.60946 13.7186C5.90249 12.5327 4.52227 11.0483 3.46883 9.26551C2.70869 7.90222 2.39619 6.44391 2.53133 4.89051C2.91299 2.63406 4.17861 1.11844 6.32821 0.343631C6.68146 0.241576 7.03561 0.163451 7.39071 0.109256ZM7.95321 0.859256C10.085 0.968665 11.5694 1.99992 12.4063 3.95301C12.7902 5.0836 12.8006 6.21904 12.4376 7.35926C12.09 8.40888 11.5796 9.36722 10.9063 10.2343C10.0654 11.2993 9.09146 12.216 7.98446 12.9843C6.58618 12.0078 5.4143 10.8099 4.46883 9.39051C3.72305 8.24685 3.32202 6.99163 3.26571 5.62488C3.35539 3.59035 4.31371 2.13202 6.14071 1.24988C6.72577 1.00972 7.32993 0.879506 7.95321 0.859256Z"
    fill="currentColor" />
  <path opacity="0.954" fill-rule="evenodd" clip-rule="evenodd"
    d="M7.54692 2.60946C8.98473 2.49215 10.0212 3.07548 10.6563 4.35946C11.1401 5.80346 10.7808 6.98574 9.57817 7.90633C8.85089 8.35799 8.06964 8.48299 7.23442 8.28133C5.70408 7.74749 5.00095 6.66936 5.12505 5.04696C5.31673 4.00208 5.89486 3.2573 6.85942 2.81258C7.08776 2.72763 7.31695 2.65993 7.54692 2.60946ZM7.95317 3.35946C7.22251 3.40755 6.64439 3.73046 6.2188 4.32821C5.7813 5.09905 5.7813 5.86986 6.2188 6.64071C6.9333 7.56546 7.83436 7.81024 8.92192 7.37508C9.92283 6.77343 10.2718 5.90364 9.9688 4.76571C9.5857 3.88846 8.91383 3.41971 7.95317 3.35946Z"
    fill="currentColor" />
  <path opacity="0.953" fill-rule="evenodd" clip-rule="evenodd"
    d="M4.76565 12.4219C5.15243 12.4455 5.29306 12.6434 5.18753 13.0156C5.129 13.0847 5.06128 13.1419 4.9844 13.1875C4.416 13.2968 3.90037 13.5208 3.43753 13.8594C3.39462 13.928 3.38422 14.0009 3.40628 14.0781C3.60231 14.2621 3.82628 14.4028 4.07815 14.5C5.01878 14.8277 5.98753 15.0152 6.9844 15.0625C8.2319 15.1414 9.4715 15.0685 10.7032 14.8438C11.3166 14.74 11.8895 14.5317 12.4219 14.2188C12.5428 14.1512 12.5897 14.0523 12.5625 13.9219C12.475 13.8229 12.376 13.7344 12.2657 13.6562C11.8615 13.4382 11.4344 13.2819 10.9844 13.1875C10.6934 12.994 10.6621 12.7648 10.8907 12.5C10.9646 12.4615 11.0427 12.4354 11.125 12.4219C11.7625 12.5405 12.3511 12.7748 12.8907 13.125C13.3989 13.5159 13.4978 13.9898 13.1875 14.5469C12.943 14.8331 12.6461 15.0466 12.2969 15.1875C11.24 15.5842 10.1463 15.8029 9.01565 15.8438C7.61718 15.9349 6.23175 15.8411 4.8594 15.5625C4.14337 15.4334 3.49753 15.1522 2.9219 14.7188C2.5868 14.3646 2.51909 13.9635 2.71878 13.5156C3.01284 13.147 3.38262 12.8814 3.82815 12.7188C4.14131 12.6091 4.45381 12.5101 4.76565 12.4219Z"
    fill="currentColor" />
</svg>