<svg xmlns="http://www.w3.org/2000/svg" width="16" height="16" viewBox="0 0 16 16" fill="none">
  <path opacity="0.966" fill-rule="evenodd" clip-rule="evenodd"
    d="M6.04688 -0.015625C6.48438 -0.015625 6.92188 -0.015625 7.35938 -0.015625C9.64653 0.26018 11.3913 1.37476 12.5938 3.32812C13.5985 5.19719 13.7235 7.12428 12.9688 9.10938C12.6591 9.82297 12.2477 10.4688 11.7344 11.0469C13.1194 12.4267 14.51 13.8017 15.9062 15.1719C15.9253 15.2208 15.9513 15.2625 15.9844 15.2969C15.9844 15.4115 15.9844 15.526 15.9844 15.6406C15.9219 15.8073 15.8073 15.9219 15.6406 15.9844C15.526 15.9844 15.4115 15.9844 15.2969 15.9844C15.2323 15.957 15.1698 15.9206 15.1094 15.875C13.7287 14.51 12.3433 13.1506 10.9531 11.7969C8.82134 13.3402 6.51925 13.6475 4.04688 12.7188C1.70043 11.6245 0.346259 9.79638 -0.015625 7.23438C-0.015625 6.81772 -0.015625 6.40103 -0.015625 5.98438C0.311362 3.53784 1.57178 1.7514 3.76562 0.625C4.49853 0.298663 5.25894 0.0851209 6.04688 -0.015625ZM6.48438 1.01562C8.54081 1.01002 10.1814 1.82252 11.4062 3.45312C12.4862 5.11691 12.6737 6.87731 11.9688 8.73438C11.1729 10.4948 9.83441 11.6042 7.95312 12.0625C5.998 12.4358 4.27925 11.9671 2.79688 10.6562C1.08965 8.90494 0.636525 6.86847 1.4375 4.54688C2.22506 2.74908 3.574 1.61887 5.48438 1.15625C5.81972 1.08973 6.15303 1.04286 6.48438 1.01562Z"
    fill="currentColor" />
</svg>