<svg xmlns="http://www.w3.org/2000/svg" width="16" height="16" viewBox="0 0 16 16" fill="none">
  <g clip-path="url(#clip0_86_506)">
    <path opacity="0.971" fill-rule="evenodd" clip-rule="evenodd"
      d="M6.11025 0.485352C7.35047 0.485352 8.59073 0.485352 9.83095 0.485352C10.6907 0.777247 11.0618 1.38271 10.9442 2.30176C11.6084 2.29688 12.2724 2.30176 12.9364 2.31641C13.6591 2.4678 14.04 2.91213 14.079 3.64941C14.0508 4.31135 13.7236 4.7508 13.0976 4.96777C13.0878 7.9463 13.078 10.9248 13.0683 13.9033C12.9239 14.7458 12.4405 15.2732 11.6181 15.4854C9.19618 15.4854 6.77432 15.4854 4.35244 15.4854C3.55673 15.2804 3.07333 14.7725 2.90224 13.9619C2.89736 10.9638 2.88271 7.96578 2.85829 4.96777C2.08341 4.6584 1.77579 4.092 1.93544 3.26855C2.10731 2.74519 2.46376 2.4278 3.00478 2.31641C3.67855 2.30176 4.35238 2.29688 5.02626 2.30176C4.91945 1.66975 5.10498 1.14729 5.5829 0.734375C5.74984 0.626432 5.92562 0.543424 6.11025 0.485352ZM6.43251 1.18848C7.53692 1.17512 8.64044 1.18977 9.74306 1.23242C9.95057 1.29448 10.0922 1.42631 10.1679 1.62793C10.2088 1.85001 10.2234 2.07462 10.2118 2.30176C8.72743 2.30176 7.24307 2.30176 5.75869 2.30176C5.75382 2.1062 5.75869 1.91089 5.77333 1.71582C5.87461 1.38958 6.09434 1.2138 6.43251 1.18848ZM3.09267 3.03418C6.35441 3.0293 9.61612 3.03418 12.8778 3.04883C13.3464 3.25347 13.4587 3.58063 13.2147 4.03027C13.1145 4.14034 12.9924 4.21358 12.8485 4.25C9.60633 4.26954 6.36416 4.26954 3.12197 4.25C2.64771 4.07762 2.51588 3.76021 2.72646 3.29785C2.82311 3.16947 2.94518 3.08158 3.09267 3.03418ZM3.59072 4.99707C6.51065 4.99707 9.43055 4.99707 12.3505 4.99707C12.3554 7.9463 12.3505 10.8955 12.3358 13.8447C12.2408 14.301 11.9723 14.5989 11.5302 14.7383C10.3444 14.7718 9.15786 14.7864 7.9706 14.7822C6.79304 14.7865 5.61627 14.7719 4.44033 14.7383C3.90252 14.5569 3.6242 14.1809 3.60536 13.6104C3.59072 10.7393 3.58582 7.86819 3.59072 4.99707Z"
      fill="currentColor" />
    <path opacity="0.955" fill-rule="evenodd" clip-rule="evenodd"
      d="M5.81739 5.90539C6.0839 5.87943 6.23528 5.99662 6.27149 6.25695C6.29103 8.48351 6.29103 10.7101 6.27149 12.9366C6.18448 13.2463 5.99405 13.339 5.7002 13.215C5.64518 13.1698 5.60124 13.116 5.56837 13.0538C5.54883 10.7491 5.54883 8.44446 5.56837 6.13976C5.62031 6.02433 5.70331 5.9462 5.81739 5.90539Z"
      fill="currentColor" />
    <path opacity="0.956" fill-rule="evenodd" clip-rule="evenodd"
      d="M7.89747 5.90537C8.0971 5.88211 8.23869 5.96024 8.32227 6.13974C8.34181 8.44444 8.34181 10.7491 8.32227 13.0538C8.12827 13.3271 7.91344 13.3467 7.67774 13.1124C7.64924 13.057 7.62969 12.9984 7.61915 12.9366C7.59961 10.7101 7.59961 8.48349 7.61915 6.25693C7.63582 6.07608 7.7286 5.9589 7.89747 5.90537Z"
      fill="currentColor" />
    <path opacity="0.956" fill-rule="evenodd" clip-rule="evenodd"
      d="M9.97755 5.90506C10.1913 5.87996 10.3329 5.96785 10.4024 6.16873C10.4219 8.44414 10.4219 10.7195 10.4024 12.9949C10.3487 13.1683 10.2316 13.2659 10.0508 13.2879C9.85327 13.2674 9.73608 13.1599 9.69923 12.9656C9.67969 10.7098 9.67969 8.45389 9.69923 6.19803C9.73878 6.04624 9.83156 5.9486 9.97755 5.90506Z"
      fill="currentColor" />
  </g>
  <defs>
    <clipPath id="clip0_86_506">
      <rect width="15" height="15" fill="white" transform="translate(0.5 0.5)" />
    </clipPath>
  </defs>
</svg>