<svg xmlns="http://www.w3.org/2000/svg" width="16" height="16" viewBox="0 0 16 16" fill="none">
  <g clip-path="url(#clip0_86_516)">
    <path opacity="0.955" fill-rule="evenodd" clip-rule="evenodd"
      d="M11.9113 0.924859C12.3705 0.915094 12.7904 1.03716 13.1711 1.29107C13.7238 1.79492 14.2463 2.32715 14.7385 2.88775C15.0504 3.46124 15.0993 4.05693 14.885 4.67486C14.8095 4.85533 14.7118 5.02135 14.592 5.17291C11.8723 7.89262 9.15255 10.6124 6.43283 13.3321C4.78678 13.9003 3.13639 14.4569 1.48166 15.002C1.05835 15.0573 0.887447 14.8766 0.968962 14.46C1.51413 12.8049 2.07077 11.1546 2.63888 9.50884C5.34885 6.79888 8.05881 4.08892 10.7688 1.37896C11.1104 1.1204 11.4913 0.969039 11.9113 0.924859ZM11.8235 1.74517C12.1718 1.7004 12.4843 1.78341 12.761 1.99419C13.1964 2.41984 13.6212 2.85441 14.0354 3.29791C14.3022 3.76065 14.2827 4.20989 13.9768 4.64556C13.8254 4.79694 13.674 4.94829 13.5227 5.09966C13.4919 5.11408 13.4626 5.10921 13.4348 5.08501C12.5611 4.21627 11.692 3.34224 10.8274 2.46294C11.004 2.27646 11.1896 2.10067 11.384 1.9356C11.5266 1.85433 11.6731 1.79085 11.8235 1.74517ZM10.2121 3.06353C11.1228 3.93016 12.0212 4.81396 12.9074 5.7149C10.6756 7.95163 8.43925 10.1831 6.19845 12.4092C5.30531 11.5307 4.41662 10.6469 3.53244 9.75787C5.76489 7.53028 7.99145 5.29885 10.2121 3.06353ZM3.12228 10.5342C3.89762 11.2949 4.66913 12.0615 5.43674 12.834C4.28663 13.2142 3.13916 13.5999 1.99435 13.9913C2.36066 12.8386 2.73664 11.6862 3.12228 10.5342Z"
      fill="currentColor" />
  </g>
  <defs>
    <clipPath id="clip0_86_516">
      <rect width="15" height="15" fill="white" transform="translate(0.5 0.5)" />
    </clipPath>
  </defs>
</svg>