<svg width="16" height="17" viewBox="0 0 16 17" fill="none" xmlns="http://www.w3.org/2000/svg">
  <g clip-path="url(#clip0_156_1489)">
    <path opacity="0.968" fill-rule="evenodd" clip-rule="evenodd"
      d="M-0.015625 8.96366C-0.015625 8.75531 -0.015625 8.547 -0.015625 8.33866C0.0402581 8.14578 0.118383 7.95828 0.21875 7.77616C0.907481 6.74362 1.75644 5.86344 2.76562 5.13553C2.51042 4.88031 2.25521 4.62512 2 4.36991C1.84124 4.1315 1.82041 3.8815 1.9375 3.61991C2.18238 3.31646 2.47926 3.25917 2.82812 3.44803C6.28125 6.90116 9.73438 10.3543 13.1875 13.8074C13.3955 14.2356 13.2861 14.5533 12.8594 14.7605C12.6416 14.8062 12.4437 14.7646 12.2656 14.6355C11.8329 14.1976 11.3954 13.7653 10.9531 13.3387C7.64294 14.3985 4.66378 13.8099 2.01562 11.573C1.32538 10.9664 0.726422 10.2841 0.21875 9.52616C0.118383 9.34403 0.0402581 9.15653 -0.015625 8.96366ZM3.64062 6.02616C4.21766 6.58756 4.79059 7.15528 5.35938 7.72928C4.96919 9.09009 5.34419 10.1838 6.48438 11.0105C7.25153 11.4652 8.05881 11.5537 8.90625 11.2762C9.26562 11.6355 9.625 11.9949 9.98438 12.3543C7.85078 12.9289 5.84037 12.6373 3.95312 11.4793C2.84517 10.7776 1.93371 9.87653 1.21875 8.77616C1.19792 8.69281 1.19792 8.6095 1.21875 8.52616C1.86271 7.53325 2.67 6.69994 3.64062 6.02616ZM6.42188 8.80741C6.89475 9.26462 7.3635 9.72819 7.82812 10.198C7.14 10.1041 6.68687 9.72384 6.46875 9.05741C6.45103 8.97403 6.43541 8.89072 6.42188 8.80741Z"
      fill="currentColor" />
    <path opacity="0.967" fill-rule="evenodd" clip-rule="evenodd"
      d="M15.9844 8.33864C15.9844 8.54698 15.9844 8.75529 15.9844 8.96364C15.9285 9.15651 15.8504 9.34401 15.75 9.52614C15.0938 10.5157 14.2865 11.3647 13.3281 12.073C13.2746 12.1277 13.2121 12.1486 13.1406 12.1355C12.8594 11.8543 12.5781 11.573 12.2969 11.2918C13.284 10.6171 14.1017 9.77861 14.75 8.77614C14.7802 8.64233 14.7593 8.51733 14.6875 8.40114C13.4389 6.56536 11.7358 5.37264 9.57812 4.82301C8.36591 4.56592 7.16278 4.60239 5.96875 4.93239C5.6315 4.62642 5.30338 4.30873 4.98438 3.97926C8.30331 2.89932 11.2929 3.48265 13.9531 5.72926C14.6434 6.33586 15.2423 7.01817 15.75 7.77614C15.8504 7.95826 15.9285 8.14576 15.9844 8.33864Z"
      fill="currentColor" />
    <path opacity="0.96" fill-rule="evenodd" clip-rule="evenodd"
      d="M7.60938 5.8698C8.94119 5.78192 9.91516 6.32358 10.5312 7.4948C10.7431 7.98483 10.816 8.49523 10.75 9.02605C10.7268 9.22323 10.6747 9.41073 10.5938 9.58855C10.25 9.2448 9.90625 8.90105 9.5625 8.5573C9.42188 7.70833 8.92709 7.21355 8.07812 7.07292C7.73438 6.72917 7.39062 6.38542 7.04688 6.04167C7.23091 5.96455 7.41841 5.90726 7.60938 5.8698Z"
      fill="currentColor" />
  </g>
  <defs>
    <clipPath id="clip0_156_1489">
      <rect width="16" height="16" fill="white" transform="translate(0 0.666748)" />
    </clipPath>
  </defs>
</svg>